<svg width="67" height="79" viewBox="0 0 67 79" fill="none" xmlns="http://www.w3.org/2000/svg">
<path d="M64.48 18.16C65.1733 18.1067 65.5467 17.7333 65.6 17.04V11.6C65.5467 10.9067 65.1733 10.5333 64.48 10.48H36.88C36.88 10.4267 36.88 10.4 36.88 10.4C36.8267 9.22667 36.4267 8.26667 35.68 7.52C34.9333 6.77333 33.9733 6.4 32.8 6.4C31.6267 6.4 30.6667 6.77333 29.92 7.52C29.1733 8.26667 28.7733 9.22667 28.72 10.4C28.72 10.4 28.7467 10.4267 28.8 10.48H1.12C0.426667 10.5333 0.0533333 10.9067 0 11.6V17.04C0.0533333 17.7333 0.426667 18.1067 1.12 18.16H3.28V48.08H1.12C0.8 48.08 0.533333 48.2133 0.32 48.48C0.106667 48.6933 0 48.96 0 49.28V54.64C0 54.96 0.106667 55.2533 0.32 55.52C0.533333 55.7333 0.8 55.84 1.12 55.84H31.12L22.24 71.2C22.08 71.4667 22.0267 71.76 22.08 72.08C22.1867 72.4 22.3733 72.64 22.64 72.8C22.8533 72.9067 23.04 72.96 23.2 72.96C23.6267 72.9067 23.9733 72.72 24.24 72.4L31.68 59.52V75.2C31.7333 75.8933 32.1067 76.24 32.8 76.24C33.4933 76.24 33.8667 75.8933 33.92 75.2V59.52L41.36 72.4C41.6267 72.72 41.9733 72.9067 42.4 72.96C42.6133 72.96 42.8 72.9067 42.96 72.8C43.2267 72.64 43.3867 72.4 43.44 72.08C43.5467 71.76 43.52 71.4667 43.36 71.2L34.48 55.84H64.48C64.8 55.84 65.0667 55.7333 65.28 55.52C65.4933 55.2533 65.6 54.96 65.6 54.64V49.28C65.6 48.96 65.4933 48.6933 65.28 48.48C65.0667 48.2133 64.8 48.08 64.48 48.08H62.32V18.16H64.48ZM31.04 10.4C31.04 9.86666 31.2 9.44 31.52 9.12C31.8933 8.74667 32.32 8.56 32.8 8.56C33.28 8.56 33.68 8.74667 34 9.12C34.3733 9.44 34.56 9.86666 34.56 10.4C34.6133 10.4 34.64 10.4267 34.64 10.48H30.96C31.0133 10.4267 31.04 10.4 31.04 10.4ZM2.32 12.8H63.36V15.84H2.32V12.8ZM63.36 53.52H2.32V50.4H63.36V53.52ZM60.08 48.08H5.52V18.16H60.08V48.08ZM10.08 34.64H12.08C12.5067 34.64 12.8267 34.4267 13.04 34L14 32.08L14.88 33.92C15.0933 34.3467 15.4667 34.5867 16 34.64C16.5333 34.5333 16.88 34.24 17.04 33.76L18 29.28L20.96 42.8C21.1733 43.3867 21.5467 43.68 22.08 43.68C22.72 43.68 23.0933 43.3867 23.2 42.8L26.4 30L27.36 33.76C27.4667 34.24 27.76 34.5067 28.24 34.56C28.7733 34.6133 29.1733 34.4267 29.44 34L30.48 32.08L33.52 37.36C33.6267 37.52 33.7867 37.68 34 37.84C34.2133 37.9467 34.4 37.9733 34.56 37.92C34.9867 37.92 35.3067 37.7067 35.52 37.28L36.88 34.64H38.48C38.8 34.64 39.0667 34.5333 39.28 34.32C39.5467 34.0533 39.68 33.7867 39.68 33.52C39.68 33.2 39.5467 32.9333 39.28 32.72C39.0667 32.4533 38.8 32.32 38.48 32.32H36.16C35.7333 32.32 35.3867 32.5333 35.12 32.96L34.4 34.32L31.52 29.12C31.3067 28.7467 30.96 28.56 30.48 28.56C30.0533 28.56 29.7333 28.7467 29.52 29.12L28.8 30.4L27.52 25.04C27.3067 24.4533 26.9333 24.16 26.4 24.16C26.1333 24.16 25.8933 24.24 25.68 24.4C25.4667 24.56 25.3333 24.7733 25.28 25.04L22.16 37.52L19.12 23.52C18.9067 22.9867 18.5067 22.72 17.92 22.72C17.3867 22.72 17.04 22.9867 16.88 23.52L15.52 29.68L15.2 28.88C14.9333 28.4533 14.5867 28.2133 14.16 28.16C14.16 28.16 14.1333 28.16 14.08 28.16C13.6533 28.16 13.3333 28.3733 13.12 28.8L11.36 32.32H10.08C9.81333 32.32 9.54667 32.4533 9.28 32.72C9.06667 32.9333 8.96 33.2 8.96 33.52C8.96 33.84 9.06667 34.1067 9.28 34.32C9.54667 34.5333 9.81333 34.64 10.08 34.64ZM45.12 31.04H56.88C57.2 31.04 57.4667 30.9333 57.68 30.72C57.8933 30.4533 58 30.16 58 29.84C57.9467 29.1467 57.5733 28.7733 56.88 28.72H45.12C44.4267 28.7733 44.0533 29.1467 44 29.84C44 30.16 44.1067 30.4533 44.32 30.72C44.5333 30.9333 44.8 31.04 45.12 31.04ZM45.12 35.12H56.88C57.2 35.12 57.4667 35.0133 57.68 34.8C57.8933 34.5333 58 34.24 58 33.92C57.9467 33.2267 57.5733 32.8533 56.88 32.8H45.12C44.4267 32.8533 44.0533 33.2267 44 33.92C44 34.24 44.1067 34.5333 44.32 34.8C44.5333 35.0133 44.8 35.12 45.12 35.12ZM45.12 39.12H56.88C57.5733 39.0667 57.9467 38.6933 58 38C58 37.68 57.8933 37.4133 57.68 37.2C57.4667 36.9333 57.2 36.8 56.88 36.8H45.12C44.8 36.8 44.5333 36.9333 44.32 37.2C44.1067 37.4133 44 37.68 44 38C44.0533 38.6933 44.4267 39.0667 45.12 39.12Z" transform="translate(0.5)" fill="#4FD5ED"/>
</svg>
