<svg width="81" height="79" viewBox="0 0 81 79" fill="none" xmlns="http://www.w3.org/2000/svg">
<path d="M78.96 25.04L65.28 11.36C65.0667 11.0933 64.8 10.96 64.48 10.96C64.2133 10.96 63.9467 11.0933 63.68 11.36L57.92 17.12C57.7067 17.3333 57.6 17.6 57.6 17.92C57.6 18.1867 57.7067 18.4533 57.92 18.72L58.4 19.12L57.6 19.92C56.9067 19.3867 55.84 18.8533 54.4 18.32C53.0133 17.7333 51.2533 17.44 49.12 17.44C46.9867 17.3867 44.7467 17.76 42.4 18.56C41.6 18.88 40.8533 19.1467 40.16 19.36L36.16 16.8C34.56 15.7867 32.7467 15.3067 30.72 15.36C28.7467 15.36 26.96 15.7067 25.36 16.4C23.76 17.04 22.56 17.6267 21.76 18.16L20.96 17.36L21.36 16.96C21.5733 16.7467 21.68 16.48 21.68 16.16C21.68 15.84 21.5733 15.5733 21.36 15.36L15.6 9.6C15.0667 9.12 14.5333 9.12 14 9.6L0.32 23.28C0.106667 23.5467 0 23.84 0 24.16C0 24.4267 0.106667 24.6667 0.32 24.88L6.08 30.64C6.29333 30.8533 6.53333 30.96 6.8 30.96C7.12 30.96 7.38667 30.8533 7.6 30.64L8 30.32L9.12 31.44C8.8 35.2267 9.17333 38.2933 10.24 40.64C11.3067 42.9333 13.2533 45.4667 16.08 48.24L15.28 48.96C14.3733 49.92 13.92 51.04 13.92 52.32C13.92 53.5467 14.3733 54.64 15.28 55.6C16.1867 56.5067 17.3067 56.96 18.64 56.96L19.04 56.88L18.96 57.28C18.96 58.6133 19.4133 59.7333 20.32 60.64C21.2267 61.5467 22.3467 62 23.68 62L24.08 61.92L24 62.32C24 63.6533 24.4533 64.7733 25.36 65.68C26.2667 66.5867 27.3867 67.04 28.72 67.04L29.12 66.96L29.04 67.36C29.04 68.6933 29.4933 69.8133 30.4 70.72C31.3067 71.6267 32.4 72.08 33.68 72.08C35.0133 72.08 36.1333 71.6267 37.04 70.72L37.76 70L38.32 70.48C39.2267 71.44 40.32 71.92 41.6 71.92C42.88 71.92 43.9733 71.44 44.88 70.48C45.84 69.52 46.32 68.3733 46.32 67.04C47.8133 67.2533 49.12 66.8267 50.24 65.76C51.1467 64.8533 51.6267 63.7333 51.68 62.4L51.6 61.84C52.2933 61.8933 52.9333 61.7867 53.52 61.52C54.1067 61.2533 54.64 60.9067 55.12 60.48C55.6 60 55.9467 59.4667 56.16 58.88C56.3733 58.24 56.48 57.6267 56.48 57.04C57.2267 57.1467 57.9467 57.0933 58.64 56.88C59.3333 56.6133 59.9467 56.2133 60.48 55.68C61.5467 54.5067 61.9467 53.12 61.68 51.52C65.7333 47.5733 68.3467 44.3467 69.52 41.84C70.7467 39.3333 70.9867 36.4267 70.24 33.12L71.28 32.08L71.68 32.4C71.8933 32.6133 72.1333 32.72 72.4 32.72C72.72 32.72 72.9867 32.6133 73.2 32.4L78.96 26.64C79.1733 26.4267 79.28 26.16 79.28 25.84C79.28 25.52 79.1733 25.2533 78.96 25.04ZM6.88 28.32L2.64 24.08L14.8 11.92L18.96 16.16L6.88 28.32ZM20.32 54.08C19.84 54.5067 19.28 54.72 18.64 54.72C18 54.72 17.4133 54.48 16.88 54C16.4 53.52 16.16 52.96 16.16 52.32C16.16 51.6267 16.4 51.04 16.88 50.56L23.28 44.16C23.6 43.7867 23.9733 43.52 24.4 43.36C24.8267 43.1467 25.2533 43.04 25.68 43.04C26.2133 43.04 26.72 43.2533 27.2 43.68C27.7333 44.2133 27.92 44.8533 27.76 45.6C27.6533 46.3467 27.3333 47.0133 26.8 47.6H26.72L20.32 54C20.32 54 20.32 54.0267 20.32 54.08ZM25.36 59.12C24.8267 59.5467 24.24 59.76 23.6 59.76C22.96 59.76 22.4 59.52 21.92 59.04C21.44 58.56 21.2 58 21.2 57.36C21.2 56.6667 21.44 56.1067 21.92 55.68C21.92 55.6267 21.92 55.6 21.92 55.6L28.32 49.2C28.32 49.2 28.3467 49.1733 28.4 49.12C29.0933 48.4267 29.8667 48.08 30.72 48.08C31.2533 48.08 31.7333 48.2933 32.16 48.72C32.64 49.1467 32.88 49.6533 32.88 50.24C32.88 50.6667 32.7733 51.0933 32.56 51.52C32.4 51.9467 32.16 52.32 31.84 52.64H31.76L25.36 59.04C25.36 59.04 25.36 59.0667 25.36 59.12ZM30.4 64.16C29.92 64.5867 29.3333 64.8 28.64 64.8C28 64.8 27.44 64.56 26.96 64.08C26.48 63.6 26.24 63.04 26.24 62.4C26.24 61.7067 26.48 61.12 26.96 60.64L33.36 54.24C33.36 54.24 33.3867 54.2133 33.44 54.16C34.1333 53.4667 34.9067 53.12 35.76 53.12C36.2933 53.12 36.8 53.3333 37.28 53.76C37.8133 54.4 38 55.0933 37.84 55.84C37.68 56.5333 37.36 57.12 36.88 57.6C36.88 57.6533 36.8533 57.68 36.8 57.68L30.4 64.08C30.4 64.08 30.4 64.1067 30.4 64.16ZM32 69.12C31.52 68.64 31.28 68.08 31.28 67.44C31.28 66.7467 31.52 66.16 32 65.68L38.4 59.28C38.4 59.2267 38.4267 59.2 38.48 59.2C39.1733 58.5067 39.9467 58.16 40.8 58.16C41.3333 58.16 41.84 58.3733 42.32 58.8C42.9067 59.44 43.0933 60.1333 42.88 60.88C42.6667 61.6267 42.32 62.24 41.84 62.72L35.44 69.12C34.96 69.6 34.4 69.84 33.76 69.84C33.12 69.84 32.5333 69.6 32 69.12ZM43.36 68.96C42.88 69.3867 42.2933 69.6 41.6 69.6C40.96 69.6533 40.3733 69.44 39.84 68.96L39.36 68.4L42.8 64.96L43.44 65.52C43.8667 66 44.08 66.5867 44.08 67.28C44.08 67.92 43.84 68.48 43.36 68.96ZM58.88 54.08C58.4 54.56 57.8133 54.8 57.12 54.8C56.48 54.8 55.8933 54.56 55.36 54.08C55.3067 54.08 55.2533 54.0267 55.2 53.92L48.48 47.2C47.9467 46.72 47.4133 46.72 46.88 47.2C46.6667 47.4133 46.56 47.68 46.56 48C46.56 48.2667 46.6667 48.5067 46.88 48.72L53.6 55.44C54.0267 55.92 54.24 56.5067 54.24 57.2C54.24 57.84 53.9733 58.4 53.44 58.88C52.96 59.36 52.4 59.6 51.76 59.6C51.12 59.6 50.56 59.36 50.08 58.88L43.04 51.92C42.8267 51.6533 42.56 51.52 42.24 51.52C41.9733 51.52 41.7333 51.6533 41.52 51.92C41.3067 52.1333 41.2 52.4 41.2 52.72C41.2 52.9867 41.3067 53.2267 41.52 53.44L48.72 60.72C49.2 61.1467 49.44 61.7067 49.44 62.4C49.44 63.0933 49.2 63.68 48.72 64.16C48.24 64.64 47.6533 64.88 46.96 64.88C46.32 64.88 45.7333 64.64 45.2 64.16L44.24 63.2C44.8267 62.24 45.12 61.2267 45.12 60.16C45.12 59.0933 44.6933 58.1067 43.84 57.2C42.7733 56.1867 41.4933 55.8133 40 56.08C40.1067 55.3867 40.08 54.72 39.92 54.08C39.76 53.3867 39.3867 52.7733 38.8 52.24C38.2667 51.7067 37.6533 51.36 36.96 51.2C36.32 50.9867 35.6267 50.9333 34.88 51.04C34.9867 50.8267 35.04 50.56 35.04 50.24C35.04 49.0133 34.64 48 33.84 47.2C33.3067 46.6667 32.6933 46.32 32 46.16C31.36 45.9467 30.6933 45.8933 30 46C30 46 30 45.9733 30 45.92C30.2133 44.4267 29.8133 43.2 28.8 42.24C27.7867 41.2267 26.6133 40.7733 25.28 40.88C23.9467 40.9867 22.7467 41.5467 21.68 42.56L17.6 46.64C14.9333 43.9733 13.1467 41.6 12.24 39.52C11.3333 37.3867 11.04 34.5867 11.36 31.12C11.36 30.8 11.2533 30.5067 11.04 30.24L9.6 28.72L19.36 18.96L20.8 20.4C21.0133 20.6133 21.2533 20.7467 21.52 20.8C21.7867 20.8 22 20.72 22.16 20.56C22.32 20.4 23.2 19.8933 24.8 19.04C26.4533 18.1333 28.4267 17.6267 30.72 17.52C32.32 17.52 33.76 17.92 35.04 18.72L37.52 20.32C33.4133 21.76 30.1867 23.12 27.84 24.4C25.5467 25.68 24.1333 27.0133 23.6 28.4C23.1733 29.4667 23.2 30.48 23.68 31.44C24.3733 32.88 25.6267 33.6 27.44 33.6C28.5067 33.6 29.84 33.36 31.44 32.88C33.04 32.3467 35.0667 31.5467 37.52 30.48C37.8933 30.2667 38.24 30.16 38.56 30.16C38.6667 30.32 38.8267 30.5067 39.04 30.72L39.84 31.6L58.88 50.64C59.36 51.12 59.6 51.7067 59.6 52.4C59.6 53.04 59.36 53.6 58.88 54.08ZM60.8 49.28C56.48 44.96 52.6133 41.0933 49.2 37.68L42.16 30.72C42.3733 30.4533 42.5333 30.1333 42.64 29.76C42.8 29.3333 42.8 28.9067 42.64 28.48C42.5867 28.2667 42.4 28.0267 42.08 27.76C41.76 27.4933 41.2533 27.36 40.56 27.36C39.44 27.36 38.1333 27.7067 36.64 28.4C34.3467 29.4133 32.4533 30.16 30.96 30.64C29.4667 31.12 28.2933 31.36 27.44 31.36C26.8533 31.36 26.4267 31.28 26.16 31.12C25.9467 30.96 25.7867 30.7467 25.68 30.48C25.4667 30.0533 25.44 29.6533 25.6 29.28C26.5067 27.7333 28.7733 26.2133 32.4 24.72C36.08 23.1733 39.6533 21.8133 43.12 20.64C45.2 19.9467 47.2 19.6 49.12 19.6C51.6267 19.7067 53.52 20.1333 54.8 20.88C56.1333 21.5733 56.8267 22 56.88 22.16C57.4133 22.64 57.9467 22.64 58.48 22.16L59.92 20.72L69.68 30.48L68.24 31.92C67.9733 32.24 67.8667 32.5867 67.92 32.96C68.6133 35.7867 68.5333 38.2667 67.68 40.4C66.88 42.5333 64.5867 45.4933 60.8 49.28ZM72.4 30L60.32 17.92L64.48 13.68L76.64 25.84L72.4 30Z" transform="translate(0.5)" fill="#4FD5ED"/>
</svg>
