<svg width="71" height="79" viewBox="0 0 71 79" fill="none" xmlns="http://www.w3.org/2000/svg">
<path d="M69.68 30.88L65.44 26.56C64.8533 25.9733 64.16 25.68 63.36 25.68C62.56 25.68 61.8667 25.9733 61.28 26.56L53.6 34.24V11.84C53.6 11.52 53.4933 11.2533 53.28 11.04C53.0667 10.7733 52.8 10.64 52.48 10.64H4.24C3.92 10.64 3.65333 10.7733 3.44 11.04C3.22667 11.2533 3.12 11.52 3.12 11.84V15.68C2.21333 15.7333 1.46667 16.0533 0.88 16.64C0.293333 17.2267 0 17.9733 0 18.88C0 19.7333 0.293333 20.48 0.88 21.12C1.46667 21.7067 2.21333 22.0267 3.12 22.08V28.24C2.21333 28.3467 1.46667 28.6933 0.88 29.28C0.293333 29.8667 0 30.6133 0 31.52C0 32.3733 0.293333 33.0933 0.88 33.68C1.46667 34.2667 2.21333 34.6133 3.12 34.72V40.88C2.21333 40.9333 1.46667 41.28 0.88 41.92C0.293333 42.5067 0 43.2533 0 44.16C0 45.0133 0.293333 45.7333 0.88 46.32C1.46667 46.9067 2.21333 47.2533 3.12 47.36V53.52C2.21333 53.5733 1.46667 53.8933 0.88 54.48C0.293333 55.0667 0 55.8133 0 56.72C0 57.6267 0.293333 58.3733 0.88 58.96C1.46667 59.5467 2.21333 59.8667 3.12 59.92V68.24C3.17333 68.9333 3.54667 69.3067 4.24 69.36H52.48C53.1733 69.3067 53.5467 68.9333 53.6 68.24V51.04L67.52 37.2L69.68 34.96C70.2667 34.3733 70.56 33.7067 70.56 32.96C70.56 32.16 70.2667 31.4667 69.68 30.88ZM47.12 49.76L46.56 49.12L60.08 35.6L60.64 36.16L47.12 49.76ZM47.2 53.04L44.08 53.92L42.32 52.24L43.2 49.04L47.2 53.04ZM58.48 33.92L44.88 47.52L44.24 46.88L57.76 33.28L58.48 33.92ZM5.36 12.96H8.08V15.6H5.36V12.96ZM2.32 18.88C2.37333 18.2933 2.69333 17.9733 3.28 17.92H10.16C10.7467 17.9733 11.04 18.2933 11.04 18.88C11.04 19.4667 10.7467 19.7867 10.16 19.84H3.28C3.01333 19.84 2.77333 19.76 2.56 19.6C2.4 19.3867 2.32 19.1467 2.32 18.88ZM8.08 22.08V28.24H5.36V22.08H8.08ZM2.32 31.52C2.37333 30.9333 2.69333 30.6133 3.28 30.56H10.16C10.7467 30.6133 11.04 30.9333 11.04 31.52C11.04 32.0533 10.7467 32.3467 10.16 32.4H3.28C2.69333 32.3467 2.37333 32.0533 2.32 31.52ZM8.08 34.72V40.88H5.36V34.72H8.08ZM2.32 44.08C2.32 43.8133 2.4 43.6 2.56 43.44C2.77333 43.2267 3.01333 43.12 3.28 43.12H10.16C10.4267 43.12 10.64 43.2267 10.8 43.44C11.0133 43.6 11.12 43.8133 11.12 44.08C11.0667 44.6667 10.7467 44.9867 10.16 45.04H3.28C2.69333 44.9867 2.37333 44.6667 2.32 44.08ZM8.08 47.36V53.44H5.36V47.36H8.08ZM3.28 57.68C2.69333 57.6267 2.4 57.3067 2.4 56.72C2.4 56.1333 2.69333 55.8133 3.28 55.76H10.16C10.4267 55.76 10.64 55.8667 10.8 56.08C11.0133 56.24 11.12 56.4533 11.12 56.72C11.12 56.9867 11.0133 57.2267 10.8 57.44C10.64 57.6 10.4267 57.68 10.16 57.68H3.28ZM51.28 67.12H5.36V60H8.08V63.52C8.13333 64.2133 8.50667 64.5867 9.2 64.64H51.28V67.12ZM51.28 62.32H10.32V59.92C11.2267 59.8667 11.9733 59.5467 12.56 58.96C13.1467 58.3733 13.44 57.6267 13.44 56.72C13.44 55.8133 13.1467 55.0667 12.56 54.48C11.9733 53.8933 11.2267 53.5733 10.32 53.52V47.36C11.2267 47.2533 11.9733 46.9067 12.56 46.32C13.1467 45.7333 13.44 45.0133 13.44 44.16C13.44 43.2533 13.1467 42.5067 12.56 41.92C11.9733 41.28 11.2267 40.9333 10.32 40.88V34.72C11.2267 34.6667 11.9733 34.3467 12.56 33.76C13.1467 33.12 13.44 32.3733 13.44 31.52C13.44 30.6133 13.1467 29.8667 12.56 29.28C11.9733 28.64 11.2267 28.2933 10.32 28.24V22.08C11.2267 22.0267 11.9733 21.7067 12.56 21.12C13.1467 20.48 13.44 19.7333 13.44 18.88C13.44 17.9733 13.1467 17.2267 12.56 16.64C11.9733 16.0533 11.2267 15.7333 10.32 15.68V12.96H51.28V36.48L41.76 46L41.52 46.56L38.88 55.92C38.7733 56.3467 38.88 56.72 39.2 57.04C39.4133 57.3067 39.68 57.44 40 57.44L49.68 54.8C49.7333 54.6933 49.7867 54.64 49.84 54.64L50.24 54.48L51.28 53.36V62.32ZM49.44 52L48.72 51.36L62.32 37.76L62.96 38.48L49.44 52ZM64.64 36.8L59.44 31.68L59.92 31.2L65.04 36.32L64.64 36.8ZM68.08 33.36L66.72 34.72L61.52 29.52L62.88 28.24C62.9867 28.08 63.12 28.0267 63.28 28.08C63.4933 28.08 63.6533 28.1333 63.76 28.24L68.08 32.48C68.1867 32.5867 68.24 32.7467 68.24 32.96C68.24 33.12 68.1867 33.2533 68.08 33.36Z" fill="#4FD5ED"/>
</svg>
