<svg width="76" height="79" viewBox="0 0 76 79" fill="none" xmlns="http://www.w3.org/2000/svg">
<path d="M73.44 16.08C73.28 15.6533 73.0133 15.3867 72.64 15.28L65.68 13.2L62.96 10.56L62.72 10.4L60.96 3.12C60.8533 2.69333 60.5867 2.42667 60.16 2.32C59.7333 2.16 59.36 2.24 59.04 2.56L49.76 11.84C47.4133 10.6133 44.9333 9.65333 42.32 8.96C39.7067 8.21334 36.9867 7.84 34.16 7.84C24.5067 8.10667 16.4533 11.4667 10 17.92C3.6 24.32 0.266667 32.3733 0 42.08C0.266667 51.7867 3.6 59.84 10 66.24C16.4533 72.64 24.5067 75.9733 34.16 76.24C43.8667 75.9733 51.92 72.64 58.32 66.24C64.7733 59.7867 68.1333 51.7333 68.4 42.08C68.4 39.1467 68.0267 36.3467 67.28 33.68C66.5333 31.0133 65.52 28.48 64.24 26.08L73.12 17.2C73.44 16.88 73.5467 16.5067 73.44 16.08ZM32.16 41.36L34.96 44.08C35.2267 44.3467 35.52 44.48 35.84 44.48C36.16 44.48 36.4 44.3467 36.56 44.08L39.76 40.96C39.8667 41.28 39.92 41.6533 39.92 42.08C39.8667 43.68 39.3067 45.04 38.24 46.16C37.1733 47.2267 35.8133 47.76 34.16 47.76C32.56 47.76 31.2 47.2267 30.08 46.16C29.0133 45.04 28.48 43.68 28.48 42.08C28.48 40.4267 29.0133 39.0667 30.08 38C31.2 36.9333 32.56 36.3733 34.16 36.32C34.5867 36.32 34.9867 36.3733 35.36 36.48L32.16 39.68C31.7867 40.2133 31.7867 40.7733 32.16 41.36ZM37.2 34.72C36.2933 34.2933 35.28 34.0533 34.16 34C31.92 34.0533 30.0267 34.8533 28.48 36.4C26.9867 37.8933 26.2133 39.7867 26.16 42.08C26.2133 44.32 26.9867 46.2133 28.48 47.76C30.0267 49.2533 31.92 50.0267 34.16 50.08C36.4533 50.0267 38.3467 49.2533 39.84 47.76C41.3867 46.2133 42.1867 44.32 42.24 42.08C42.1867 41.0133 41.9467 40.0533 41.52 39.2L46.32 34.4C47.8133 36.5867 48.5867 39.1467 48.64 42.08C48.5333 46.1333 47.12 49.5467 44.4 52.32C41.68 55.04 38.2667 56.4533 34.16 56.56C30.1067 56.4533 26.6933 55.04 23.92 52.32C21.2 49.5467 19.7867 46.1333 19.68 42.08C19.7867 38.0267 21.2 34.64 23.92 31.92C26.6933 29.1467 30.1067 27.7067 34.16 27.6C35.6 27.6 36.96 27.8133 38.24 28.24C39.5733 28.6667 40.8 29.2533 41.92 30L37.2 34.72ZM43.6 28.32C40.88 26.3467 37.7333 25.3333 34.16 25.28C29.4133 25.3867 25.4667 27.04 22.32 30.24C19.1733 33.3867 17.5467 37.3333 17.44 42.08C17.5467 46.8267 19.1733 50.7733 22.32 53.92C25.4667 57.0667 29.4133 58.6933 34.16 58.8C38.9067 58.6933 42.8533 57.0667 46 53.92C49.2 50.7733 50.8533 46.8267 50.96 42.08C50.9067 38.5067 49.92 35.3867 48 32.72L52.56 28.16C54.0533 30.1333 55.2267 32.2933 56.08 34.64C56.9333 36.9333 57.36 39.3867 57.36 42C57.2 48.56 54.9333 54.0267 50.56 58.4C46.1867 62.7733 40.72 65.04 34.16 65.2C27.6 65.04 22.1333 62.7733 17.76 58.4C13.3867 54.0267 11.12 48.56 10.96 42C11.12 35.4933 13.3867 30.0533 17.76 25.68C22.1867 21.3067 27.6533 19.04 34.16 18.88C36.8267 18.88 39.3333 19.3067 41.68 20.16C44.0267 21.0133 46.1867 22.2133 48.16 23.76L43.6 28.32ZM63.36 14.16L35.76 41.68L34.64 40.48L62.16 12.96L63.36 14.16ZM59.2 5.6L60.48 10.88L52.16 19.2L50.96 13.92L59.2 5.6ZM34.16 73.92C25.1467 73.7067 17.6267 70.6133 11.6 64.64C5.57333 58.6133 2.45333 51.0933 2.24 42.08C2.45333 33.0667 5.57333 25.5467 11.6 19.52C17.6267 13.4933 25.1467 10.3733 34.16 10.16C39.44 10.2133 44.24 11.4133 48.56 13.76C48.56 13.8133 48.56 13.84 48.56 13.84L50.4 21.52L49.76 22.08C47.5733 20.3733 45.1733 19.04 42.56 18.08C39.9467 17.0667 37.1467 16.56 34.16 16.56C26.96 16.72 20.96 19.2 16.16 24C11.36 28.8 8.88 34.8 8.72 42C8.88 49.2 11.36 55.2267 16.16 60.08C20.96 64.88 26.96 67.36 34.16 67.52C41.36 67.36 47.36 64.88 52.16 60.08C56.96 55.2267 59.4667 49.2 59.68 42C59.68 39.0667 59.1733 36.32 58.16 33.76C57.2 31.1467 55.8667 28.7467 54.16 26.56L55.04 25.68L62.16 27.76L62.4 27.6C64.8 31.92 66.0267 36.7467 66.08 42.08C65.8667 51.0933 62.7467 58.6133 56.72 64.64C50.6933 70.6133 43.1733 73.7067 34.16 73.92ZM61.76 25.28L57.04 23.84L65.36 15.52L70.16 16.96L61.76 25.28Z" transform="translate(1)" fill="#4FD5ED"/>
</svg>
