<svg width="76" height="79" viewBox="0 0 76 79" fill="none" xmlns="http://www.w3.org/2000/svg">
<path d="M37.36 16.4C31.2267 16.56 26.1067 18.6933 22 22.8C17.8933 26.9067 15.76 32.0267 15.6 38.16C15.6533 41.9467 16.5333 45.44 18.24 48.64C20 51.84 22.4533 54.4533 25.6 56.48C25.92 56.64 26.1867 56.8 26.4 56.96C26.9867 57.28 27.4133 57.6533 27.68 58.08C28 58.4533 28.16 59.12 28.16 60.08V64.48C28.16 64.8 28.2667 65.0667 28.48 65.28C28.7467 65.4933 29.04 65.6 29.36 65.6H45.28C45.6 65.6 45.8667 65.4933 46.08 65.28C46.3467 65.0667 46.48 64.8 46.48 64.48V60.08C46.48 59.12 46.6133 58.4533 46.88 58.08C47.1467 57.6533 47.7067 57.2 48.56 56.72C51.8667 54.6933 54.4267 52.08 56.24 48.88C58.1067 45.6267 59.04 42.0533 59.04 38.16C58.88 32.0267 56.7467 26.9067 52.64 22.8C48.5867 18.6933 43.4933 16.56 37.36 16.4ZM47.36 54.8C46.4 55.3333 45.6267 55.9467 45.04 56.64C44.4533 57.3333 44.16 58.48 44.16 60.08V63.36H30.48V60.08C30.4267 58.48 30.1067 57.3333 29.52 56.64C28.9867 55.9467 28.3733 55.4133 27.68 55.04C27.4667 54.88 27.2 54.72 26.88 54.56C24.0533 52.6933 21.84 50.3467 20.24 47.52C18.6933 44.64 17.92 41.52 17.92 38.16C18.08 32.6667 19.9733 28.1067 23.6 24.48C27.28 20.8 31.8667 18.88 37.36 18.72C42.8533 18.88 47.4133 20.8 51.04 24.48C54.6667 28.1067 56.56 32.6667 56.72 38.16C56.72 41.6267 55.8933 44.8 54.24 47.68C52.64 50.56 50.3467 52.9333 47.36 54.8ZM45.28 66.4H29.36C29.04 66.4 28.7467 66.5067 28.48 66.72C28.2667 66.9333 28.16 67.2 28.16 67.52V68.8C28.2133 70.4 28.8 71.7867 29.92 72.96C30.7733 73.76 31.76 74.2933 32.88 74.56C33.2 75.52 33.76 76.2667 34.56 76.8C35.36 77.3867 36.2667 77.68 37.28 77.68C38.3467 77.68 39.28 77.3867 40.08 76.8C40.88 76.2667 41.44 75.52 41.76 74.56C42.9333 74.2933 43.92 73.76 44.72 72.96C45.8933 71.7867 46.48 70.4 46.48 68.8V67.52C46.48 67.2 46.3467 66.9333 46.08 66.72C45.8667 66.5067 45.6 66.4 45.28 66.4ZM44.16 68.8C44.16 69.76 43.8133 70.6133 43.12 71.36C42.2667 72.0533 41.4933 72.3733 40.8 72.32C40.5333 72.32 40.2933 72.4 40.08 72.56C39.8667 72.7733 39.7333 73.0133 39.68 73.28C39.5733 73.92 39.3067 74.4267 38.88 74.8C38.4533 75.2267 37.92 75.44 37.28 75.44C36.6933 75.44 36.1867 75.2267 35.76 74.8C35.3333 74.4267 35.0667 73.92 34.96 73.28C34.9067 73.0133 34.7733 72.7733 34.56 72.56C34.4 72.4 34.16 72.32 33.84 72.32C33.5733 72.32 33.2267 72.24 32.8 72.08C32.3733 71.9733 31.9467 71.7333 31.52 71.36C30.88 70.6133 30.5333 69.76 30.48 68.8V68.72H44.16V68.8ZM48.72 24.8L47.68 25.84C47.2 25.6267 46.72 25.44 46.24 25.28V23.84C46.24 23.52 46.1333 23.2533 45.92 23.04C45.7067 22.7733 45.44 22.64 45.12 22.64H41.44C41.12 22.64 40.8267 22.7733 40.56 23.04C40.3467 23.2533 40.24 23.52 40.24 23.84V25.28C39.76 25.44 39.28 25.6267 38.8 25.84L37.76 24.8C37.5467 24.5867 37.28 24.48 36.96 24.48C36.6933 24.48 36.4267 24.5867 36.16 24.8L33.52 27.44C33.3067 27.7067 33.2 28 33.2 28.32C33.2 28.5867 33.3067 28.8267 33.52 29.04L34.64 30.08C34.3733 30.56 34.16 31.04 34 31.52H32.56C32.24 31.52 31.9467 31.6533 31.68 31.92C31.4667 32.1333 31.36 32.4 31.36 32.72V36.4C31.36 36.72 31.4667 36.9867 31.68 37.2C31.9467 37.4133 32.24 37.52 32.56 37.52H34C34.16 38 34.3733 38.48 34.64 38.96L33.52 40C33.36 40.2133 33.28 40.4533 33.28 40.72C33.2267 40.56 33.1467 40.4267 33.04 40.32L31.6 38.8C31.3867 38.5867 31.12 38.48 30.8 38.48C30.5333 38.48 30.2667 38.5867 30 38.8L29.68 39.2C29.6267 39.1467 29.5467 39.12 29.44 39.12V38.64C29.44 38.32 29.3333 38.0533 29.12 37.84C28.9067 37.5733 28.64 37.44 28.32 37.44H26.24C25.92 37.44 25.6533 37.5733 25.44 37.84C25.2267 38.0533 25.12 38.32 25.12 38.64V39.12C25.0667 39.12 25.0133 39.1467 24.96 39.2L24.64 38.88C24.1067 38.4 23.5467 38.4 22.96 38.88L21.52 40.32C21.36 40.48 21.2533 40.7467 21.2 41.12C21.2 41.44 21.3067 41.7067 21.52 41.92L21.84 42.24C21.84 42.3467 21.8133 42.4 21.76 42.4H21.36C21.04 42.4 20.7467 42.5333 20.48 42.8C20.2667 43.0133 20.16 43.28 20.16 43.6V45.6C20.16 45.92 20.2667 46.2133 20.48 46.48C20.7467 46.6933 21.04 46.8 21.36 46.8H21.76C21.8133 46.8533 21.84 46.9067 21.84 46.96L21.52 47.28C21.1467 47.8133 21.1467 48.3733 21.52 48.96L22.96 50.4C23.2267 50.56 23.52 50.6667 23.84 50.72C24.1067 50.6667 24.3733 50.56 24.64 50.4L24.96 50.08C25.0133 50.08 25.0667 50.1067 25.12 50.16V50.56C25.12 50.88 25.2267 51.1733 25.44 51.44C25.6533 51.6533 25.92 51.76 26.24 51.76H28.32C28.64 51.76 28.9067 51.6533 29.12 51.44C29.3333 51.1733 29.44 50.88 29.44 50.56V50.16C29.5467 50.1067 29.6267 50.08 29.68 50.08L30 50.4C30.2133 50.56 30.48 50.6667 30.8 50.72C31.1733 50.6667 31.44 50.56 31.6 50.4L33.04 48.88C33.3067 48.6667 33.44 48.4267 33.44 48.16C33.44 47.84 33.3067 47.5467 33.04 47.28L32.72 46.96C32.7733 46.9067 32.8 46.8533 32.8 46.8H33.28C33.6 46.8 33.8667 46.6933 34.08 46.48C34.2933 46.2133 34.4 45.92 34.4 45.6V43.6C34.4 43.28 34.2933 43.0133 34.08 42.8C33.8667 42.5333 33.6 42.4 33.28 42.4H32.8C32.8 42.4 32.7733 42.3467 32.72 42.24L33.04 41.92C33.2533 41.7067 33.36 41.4667 33.36 41.2L33.52 41.68L36.16 44.24C36.4267 44.4533 36.6933 44.56 36.96 44.56C37.28 44.56 37.5467 44.4533 37.76 44.24L38.88 43.2C39.3067 43.4133 39.76 43.6 40.24 43.76V45.28C40.24 45.6 40.3467 45.8667 40.56 46.08C40.8267 46.2933 41.12 46.4 41.44 46.4H45.12C45.8133 46.3467 46.1867 45.9733 46.24 45.28V43.76C46.72 43.6 47.2 43.4133 47.68 43.2L48.72 44.24C49.3067 44.72 49.8667 44.72 50.4 44.24L52.96 41.68C53.44 41.0933 53.44 40.5333 52.96 40L51.92 38.96C52.1867 38.48 52.4 38 52.56 37.52H54C54.6933 37.4667 55.0667 37.0933 55.12 36.4V32.72C55.12 32.4 55.0133 32.1333 54.8 31.92C54.5867 31.6533 54.32 31.52 54 31.52H52.56C52.4 31.04 52.1867 30.56 51.92 30.08L52.96 29.04C53.2267 28.8267 53.36 28.56 53.36 28.24C53.36 27.92 53.2267 27.6533 52.96 27.44L50.4 24.8C49.8667 24.3733 49.3067 24.3733 48.72 24.8ZM30.88 45.36C30.72 45.7867 30.5333 46.1867 30.32 46.56C30.16 46.88 30.1333 47.2 30.24 47.52C29.8667 47.4133 29.5467 47.4667 29.28 47.68C28.9067 47.8933 28.5333 48.0533 28.16 48.16C27.7867 48.2667 27.4933 48.48 27.28 48.8C27.12 48.48 26.88 48.2667 26.56 48.16C26.08 48.0533 25.68 47.8933 25.36 47.68C25.2 47.52 24.9867 47.44 24.72 47.44L24.4 47.52C24.4533 47.2 24.3733 46.88 24.16 46.56C24 46.1867 23.8667 45.7867 23.76 45.36C23.6533 45.04 23.44 44.8 23.12 44.64C23.44 44.4267 23.6533 44.1333 23.76 43.76C23.8667 43.3867 24 43.04 24.16 42.72C24.3733 42.3467 24.4533 42 24.4 41.68C24.72 41.7867 25.04 41.7333 25.36 41.52C25.7333 41.2533 26.1067 41.0933 26.48 41.04C26.8533 40.9867 27.12 40.8 27.28 40.48C27.4933 40.8 27.7867 41.0133 28.16 41.12C28.5333 41.1733 28.88 41.3067 29.2 41.52C29.5733 41.7333 29.92 41.7867 30.24 41.68C30.1333 42.0533 30.1867 42.3733 30.4 42.64L30.88 43.84C30.9867 44.16 31.1733 44.4267 31.44 44.64C31.1733 44.7467 30.9867 44.9867 30.88 45.36ZM49.52 30.56C50 31.2533 50.3467 32.0533 50.56 32.96C50.72 33.4933 51.0933 33.7867 51.68 33.84H52.88V35.2H51.68C51.0933 35.2533 50.72 35.5733 50.56 36.16C50.3467 36.96 50 37.76 49.52 38.56C49.4133 38.7733 49.36 39.0133 49.36 39.28C49.36 39.5467 49.4667 39.76 49.68 39.92L50.56 40.8L49.52 41.84L48.72 40.96C48.5067 40.7467 48.2667 40.64 48 40.64C47.7333 40.5867 47.4933 40.64 47.28 40.8C46.5867 41.28 45.7867 41.6 44.88 41.76C44.2933 41.9733 44 42.3467 44 42.88V44.16H42.56V42.88C42.5067 42.3467 42.2133 41.9733 41.68 41.76C40.8267 41.6 40.0267 41.28 39.28 40.8C38.7467 40.48 38.2667 40.5333 37.84 40.96L36.96 41.84L36 40.8L36.88 40C37.04 39.7867 37.12 39.5467 37.12 39.28C37.1733 39.0133 37.1467 38.7733 37.04 38.56C36.56 37.76 36.2133 36.96 36 36.16C35.8933 35.5733 35.52 35.2533 34.88 35.2H33.68V33.84H34.88C35.52 33.7867 35.8933 33.4933 36 32.96C36.2133 32.0533 36.56 31.2533 37.04 30.56C37.2533 30.0267 37.2 29.5467 36.88 29.12L36 28.24L36.96 27.28L37.84 28.16C38.2667 28.48 38.7467 28.5067 39.28 28.24C40.0267 27.8133 40.8267 27.4933 41.68 27.28C42.2133 27.12 42.5067 26.7467 42.56 26.16V24.96H44V26.16C44 26.7467 44.2933 27.12 44.88 27.28C45.68 27.4933 46.48 27.8133 47.28 28.24C47.4933 28.4 47.7333 28.48 48 28.48C48.2667 28.4267 48.5067 28.32 48.72 28.16L49.52 27.28L50.56 28.24L49.68 29.12C49.3067 29.5467 49.2533 30.0267 49.52 30.56ZM43.28 30.08C42 30.1333 40.96 30.5867 40.16 31.44C39.36 32.24 38.96 33.28 38.96 34.56C38.96 35.84 39.36 36.88 40.16 37.68C40.96 38.48 41.9733 38.88 43.2 38.88C44.48 38.88 45.52 38.48 46.32 37.68C47.1733 36.8267 47.6 35.7867 47.6 34.56C47.6 33.3333 47.1733 32.2933 46.32 31.44C45.52 30.5867 44.5067 30.1333 43.28 30.08ZM43.28 36.64C42.64 36.64 42.1067 36.4533 41.68 36.08C41.3067 35.6533 41.12 35.1467 41.12 34.56C41.12 33.92 41.3067 33.4133 41.68 33.04C42.1067 32.6133 42.6133 32.4 43.2 32.4C43.84 32.4 44.3467 32.6133 44.72 33.04C45.1467 33.4133 45.36 33.92 45.36 34.56C45.36 35.1467 45.1467 35.6533 44.72 36.08C44.3467 36.4533 43.8667 36.64 43.28 36.64ZM27.28 41.6C26.48 41.6 25.7867 41.8933 25.2 42.48C24.6133 43.0667 24.32 43.7867 24.32 44.64C24.32 45.44 24.6133 46.1333 25.2 46.72C25.7867 47.3067 26.48 47.6 27.28 47.6C28.08 47.6 28.7733 47.3067 29.36 46.72C29.9467 46.1333 30.24 45.44 30.24 44.64C30.24 43.7867 29.9467 43.0667 29.36 42.48C28.8267 41.8933 28.1333 41.6 27.28 41.6ZM37.36 12.24C37.6267 12.24 37.8667 12.1333 38.08 11.92C38.3467 11.7067 38.48 11.44 38.48 11.12V2.56C38.48 2.24 38.3467 1.97333 38.08 1.76C37.8667 1.49333 37.6 1.36 37.28 1.36C37.0133 1.36 36.7467 1.49333 36.48 1.76C36.2667 1.97333 36.16 2.24 36.16 2.56V11.12C36.16 11.44 36.2667 11.7067 36.48 11.92C36.7467 12.1333 37.04 12.24 37.36 12.24ZM17.84 20.32C18.1067 20.32 18.3467 20.2133 18.56 20C18.8267 19.7333 18.96 19.4667 18.96 19.2C18.96 18.88 18.8533 18.6133 18.64 18.4L12.56 12.32C12.2933 12.0533 12 11.92 11.68 11.92C11.4133 11.92 11.1733 12.0533 10.96 12.32C10.7467 12.5867 10.64 12.88 10.64 13.2C10.64 13.4667 10.7467 13.7067 10.96 13.92L16.96 20C17.2267 20.2133 17.52 20.32 17.84 20.32ZM63.76 12.32C63.2267 11.84 62.6667 11.84 62.08 12.32L56.08 18.4C55.8667 18.6133 55.76 18.88 55.76 19.2C55.76 19.4667 55.8667 19.7333 56.08 20C56.2933 20.2133 56.56 20.32 56.88 20.32C57.2 20.32 57.4667 20.2133 57.68 20L63.76 13.92C63.9733 13.7067 64.08 13.4667 64.08 13.2C64.08 12.88 63.9733 12.5867 63.76 12.32ZM73.52 37.52H64.96C64.64 37.52 64.3733 37.6533 64.16 37.92C63.9467 38.1333 63.84 38.4 63.84 38.72C63.8933 39.4133 64.2667 39.7867 64.96 39.84H73.52C74.2133 39.7867 74.5867 39.4133 74.64 38.72C74.64 38.4 74.5333 38.1333 74.32 37.92C74.1067 37.6533 73.84 37.52 73.52 37.52ZM9.76 37.52H1.2C0.88 37.52 0.586667 37.6533 0.32 37.92C0.106667 38.1333 0 38.4 0 38.72C0 39.04 0.106667 39.3067 0.32 39.52C0.586667 39.7333 0.88 39.84 1.2 39.84H9.76C10.0267 39.84 10.2667 39.7333 10.48 39.52C10.7467 39.3067 10.88 39.04 10.88 38.72C10.88 38.4 10.7467 38.1333 10.48 37.92C10.2667 37.6533 10.0267 37.52 9.76 37.52Z" transform="translate(0.5)" fill="#4FD5ED"/>
</svg>
