<svg width="60" height="79" viewBox="0 0 60 79" fill="none" xmlns="http://www.w3.org/2000/svg">
<path d="M56.48 38.88C56.0533 38.5067 55.6 38.2133 55.12 38V16.24C55.12 15.44 54.96 14.6667 54.64 13.92C54.32 13.1733 53.8667 12.5067 53.28 11.92C52.6933 11.3333 52.0267 10.88 51.28 10.56C50.5333 10.24 49.76 10.08 48.96 10.08H6.16C5.36 10.08 4.58667 10.24 3.84 10.56C3.09333 10.88 2.42667 11.3333 1.84 11.92C1.25333 12.5067 0.8 13.1733 0.48 13.92C0.16 14.6667 0 15.44 0 16.24V64.64C0 66.3467 0.613333 67.8133 1.84 69.04C2.42667 69.6267 3.09333 70.08 3.84 70.4C4.58667 70.72 5.36 70.88 6.16 70.88H48.96C49.76 70.88 50.5333 70.72 51.28 70.4C52.0267 70.08 52.6933 69.6267 53.28 69.04C54.5067 67.8133 55.12 66.3467 55.12 64.64V52.72C55.6 52.5067 56.0533 52.2133 56.48 51.84C57.6533 50.6133 58.24 49.1467 58.24 47.44V43.28C58.24 41.5733 57.6533 40.1067 56.48 38.88ZM2.32 16.24C2.32 15.1733 2.69333 14.2667 3.44 13.52C4.18667 12.7733 5.09333 12.4 6.16 12.4H48.96C50.0267 12.4 50.9333 12.7733 51.68 13.52C52.4267 14.2667 52.8 15.1733 52.8 16.24V22.72C51.7867 21.8133 50.5867 21.3067 49.2 21.2V15.28C49.2 14.96 49.0667 14.6933 48.8 14.48C48.5867 14.2667 48.32 14.16 48 14.16H6.88C6.56 14.16 6.26667 14.2667 6 14.48C5.78667 14.6933 5.68 14.96 5.68 15.28V21.12C4.88 20.96 4.13333 20.6133 3.44 20.08C2.69333 19.28 2.32 18.3467 2.32 17.28V16.24ZM46.88 17.68H8V16.4H46.88V17.68ZM8 20H46.88V21.2H8V20ZM52.8 64.64C52.8 65.7067 52.4 66.64 51.6 67.44C50.8533 68.1867 49.9733 68.56 48.96 68.56H6.16C5.09333 68.56 4.18667 68.1867 3.44 67.44C2.69333 66.64 2.32 65.7067 2.32 64.64V22.08C3.38667 23.04 4.66667 23.52 6.16 23.52H48.96C50.0267 23.52 50.9333 23.8933 51.68 24.64C52.4267 25.3867 52.8 26.2933 52.8 27.36V37.2L52.08 37.04H35.12C33.4133 37.04 31.9733 37.6533 30.8 38.88C29.6267 40.0533 29.0133 41.52 28.96 43.28V47.44C29.0133 49.1467 29.6267 50.5867 30.8 51.76C31.9733 52.9333 33.4133 53.5467 35.12 53.6H52.08L52.8 53.52V64.64ZM56 47.44C56 48.5067 55.6 49.44 54.8 50.24C54.0533 50.9867 53.1467 51.36 52.08 51.36H35.12C34.0533 51.36 33.1467 50.9867 32.4 50.24C31.6533 49.44 31.2533 48.5067 31.2 47.44V43.28C31.2533 42.16 31.6533 41.2267 32.4 40.48C33.1467 39.7333 34.0533 39.36 35.12 39.36H52.08C53.1467 39.36 54.0533 39.7333 54.8 40.48C55.6 41.2267 56 42.16 56 43.28V47.44ZM37.28 41.52C36.2133 41.52 35.3067 41.8933 34.56 42.64C33.8667 43.3333 33.52 44.24 33.52 45.36C33.52 46.48 33.8667 47.4133 34.56 48.16C35.3067 48.8533 36.2133 49.2 37.28 49.2C38.3467 49.1467 39.2267 48.7733 39.92 48.08C40.6667 47.3333 41.04 46.4267 41.04 45.36C41.0933 44.2933 40.7467 43.4133 40 42.72C39.3067 41.9733 38.4 41.5733 37.28 41.52ZM37.28 46.88C36.8533 46.88 36.48 46.7467 36.16 46.48C35.8933 46.16 35.76 45.7867 35.76 45.36C35.76 44.9333 35.8933 44.56 36.16 44.24C36.48 43.92 36.8533 43.76 37.28 43.76C37.7067 43.76 38.08 43.92 38.4 44.24C38.72 44.56 38.88 44.9333 38.88 45.36C38.88 45.7867 38.72 46.16 38.4 46.48C38.08 46.7467 37.7067 46.88 37.28 46.88Z" transform="translate(0.5)" fill="#4FD5ED"/>
</svg>
