<svg width="70" height="79" viewBox="0 0 70 79" fill="none" xmlns="http://www.w3.org/2000/svg">
<path d="M34.24 5.2C24.5333 5.46667 16.4533 8.82667 10 15.28C3.6 21.68 0.266667 29.7333 0 39.44C0.266667 49.1467 3.6 57.2267 10 63.68C16.4533 70.08 24.5333 73.4133 34.24 73.68C43.9467 73.4133 52 70.08 58.4 63.68C64.8533 57.2267 68.2133 49.1467 68.48 39.44C68.2133 29.7333 64.8533 21.68 58.4 15.28C52 8.82667 43.9467 5.46667 34.24 5.2ZM34.24 71.44C25.1733 71.2267 17.6 68.1067 11.52 62.08C5.49333 56 2.37333 48.4533 2.16 39.44C2.37333 30.4267 5.49333 22.88 11.52 16.8C17.6 10.72 25.1733 7.57333 34.24 7.36C43.2533 7.57333 50.7733 10.72 56.8 16.8C62.88 22.8267 66.0267 30.3733 66.24 39.44C66.0267 48.5067 62.88 56.0533 56.8 62.08C50.7733 68.1067 43.2533 71.2267 34.24 71.44ZM34.24 12.56C26.6667 12.7733 20.3467 15.4133 15.28 20.48C10.2133 25.4933 7.57333 31.8133 7.36 39.44C7.57333 47.0133 10.2133 53.3333 15.28 58.4C20.3467 63.4667 26.6667 66.1067 34.24 66.32C41.8133 66.1067 48.1333 63.4667 53.2 58.4C58.2667 53.3333 60.9067 47.0133 61.12 39.44C60.9067 31.8133 58.2667 25.4933 53.2 20.48C48.1333 15.4133 41.8133 12.7733 34.24 12.56ZM34.24 64.08C27.2533 63.92 21.4133 61.52 16.72 56.88C12.08 52.24 9.68 46.4267 9.52 39.44C9.68 32.4533 12.08 26.64 16.72 22C21.4133 17.3067 27.2533 14.88 34.24 14.72C41.2267 14.88 47.04 17.3067 51.68 22C56.32 26.64 58.72 32.4533 58.88 39.44C58.72 46.4267 56.32 52.24 51.68 56.88C47.04 61.52 41.2267 63.92 34.24 64.08ZM35.36 35.6V19.52C35.36 19.2533 35.2267 19.0133 34.96 18.8C34.7467 18.5333 34.48 18.4 34.16 18.4C33.8933 18.4 33.6533 18.5333 33.44 18.8C33.2267 19.0133 33.12 19.2533 33.12 19.52V35.6C32.2667 35.8667 31.5467 36.3467 30.96 37.04C30.4267 37.68 30.16 38.48 30.16 39.44C30.16 40.0267 30.2933 40.56 30.56 41.04L22.88 46.24C22.6133 46.4 22.4533 46.64 22.4 46.96C22.3467 47.2267 22.4267 47.52 22.64 47.84C22.8533 48.1067 23.1467 48.24 23.52 48.24C23.7867 48.24 24 48.1867 24.16 48.08L32 42.72C32.64 43.1467 33.3867 43.3867 34.24 43.44C35.4133 43.3867 36.3733 42.9867 37.12 42.24C37.8667 41.4933 38.24 40.56 38.24 39.44C38.24 38.48 37.9733 37.68 37.44 37.04C36.9067 36.3467 36.2133 35.8667 35.36 35.6ZM34.24 41.28C33.7067 41.28 33.2533 41.0933 32.88 40.72C32.56 40.3467 32.4 39.92 32.4 39.44C32.4 38.9067 32.56 38.48 32.88 38.16C33.2533 37.7867 33.68 37.6 34.16 37.6C34.6933 37.6 35.1467 37.7867 35.52 38.16C35.8933 38.48 36.08 38.9067 36.08 39.44C36.08 39.92 35.8933 40.3467 35.52 40.72C35.1467 41.0933 34.72 41.28 34.24 41.28Z" fill="#4FD5ED"/>
</svg>
