<svg width="59" height="79" viewBox="0 0 59 79" fill="none" xmlns="http://www.w3.org/2000/svg">
<path d="M42.16 52.32C41.2 51.4133 40.08 50.96 38.8 50.96C37.52 50.96 36.4 51.4133 35.44 52.32L34.16 53.6L16.48 36L17.76 34.64C18.6667 33.7333 19.12 32.6133 19.12 31.28C19.12 29.9467 18.6667 28.8267 17.76 27.92L14.24 24.4C13.28 23.4933 12.16 23.04 10.88 23.04C9.6 23.04 8.48 23.4933 7.52 24.4L1.84 30.16C0.613333 31.3333 0 32.8 0 34.56C0 35.36 0.16 36.1333 0.48 36.88C0.8 37.6267 1.25333 38.2933 1.84 38.88L31.2 68.32C31.7867 68.9067 32.4533 69.3333 33.2 69.6C33.9467 69.92 34.72 70.08 35.52 70.08C37.28 70.0267 38.7467 69.44 39.92 68.32L45.68 62.56C46.5867 61.6533 47.04 60.5333 47.04 59.2C47.04 57.8667 46.5867 56.7467 45.68 55.84L42.16 52.32ZM44.08 60.88L38.32 66.64C37.52 67.3333 36.5867 67.68 35.52 67.68C34.5067 67.68 33.6 67.3333 32.8 66.64L3.44 37.28C2.69333 36.48 2.32 35.5467 2.32 34.48C2.32 33.4133 2.69333 32.5067 3.44 31.76L9.2 26.08C9.62667 25.6 10.1867 25.36 10.88 25.36C11.5733 25.36 12.16 25.6 12.64 26.08L16.16 29.52C16.64 30 16.88 30.5867 16.88 31.28C16.88 31.92 16.64 32.5067 16.16 33.04L14 35.12C13.6267 35.6533 13.6267 36.2133 14 36.8L33.28 56.08C33.5467 56.24 33.8133 56.32 34.08 56.32C34.4 56.32 34.6933 56.24 34.96 56.08L37.04 53.92C37.5733 53.4933 38.16 53.28 38.8 53.28C39.4933 53.28 40.08 53.4933 40.56 53.92L44 57.44C44.5333 57.92 44.7733 58.5067 44.72 59.2C44.72 59.8933 44.5067 60.4533 44.08 60.88ZM14.96 32.96C15.28 32.96 15.5467 32.8533 15.76 32.64C16.0267 32.3733 16.16 32.1067 16.16 31.84C16.16 31.52 16.0267 31.2533 15.76 31.04L11.28 26.56C11.0667 26.2933 10.8 26.16 10.48 26.16C10.2133 26.16 9.94667 26.2933 9.68 26.56C9.46667 26.7733 9.36 27.04 9.36 27.36C9.36 27.68 9.46667 27.9467 9.68 28.16L14.16 32.64C14.3733 32.8533 14.64 32.96 14.96 32.96ZM39.12 54.32C38.5867 53.84 38.0267 53.84 37.44 54.32C37.2267 54.5867 37.12 54.88 37.12 55.2C37.12 55.4667 37.2267 55.7067 37.44 55.92L41.92 60.4C42.1333 60.6133 42.4 60.72 42.72 60.72C43.04 60.72 43.3067 60.6133 43.52 60.4C43.7867 60.1867 43.92 59.92 43.92 59.6C43.92 59.28 43.7867 59.0133 43.52 58.8L39.12 54.32ZM57.6 36.88C57.6 36.8267 57.5733 36.8 57.52 36.8C57.2533 29.92 54.8267 24.1867 50.24 19.6C45.6533 15.0133 39.8933 12.64 32.96 12.48C29.44 12.48 26.08 13.2 22.88 14.64C19.7333 16.08 16.9867 18.1333 14.64 20.8C14.4267 21.0133 14.32 21.28 14.32 21.6C14.32 21.92 14.4533 22.1867 14.72 22.4C14.9867 22.6133 15.2533 22.72 15.52 22.72C15.84 22.6667 16.1067 22.5333 16.32 22.32C18.3467 20.08 20.6933 18.32 23.36 17.04C26.0267 15.76 28.8533 15.0667 31.84 14.96V18.64C31.84 18.96 31.9467 19.2267 32.16 19.44C32.4267 19.6533 32.6933 19.76 32.96 19.76C33.28 19.76 33.5467 19.6533 33.76 19.44C34.0267 19.2267 34.16 18.96 34.16 18.64V14.88C39.92 15.3067 44.7467 17.4667 48.64 21.36C52.5333 25.2 54.6933 29.9733 55.12 35.68H51.44C51.1733 35.68 50.9067 35.8133 50.64 36.08C50.4267 36.2933 50.32 36.56 50.32 36.88C50.32 37.2 50.4267 37.4667 50.64 37.68C50.9067 37.8933 51.1733 38 51.44 38H55.2C55.0933 41.0933 54.3733 44.0267 53.04 46.8C51.76 49.52 49.9467 51.92 47.6 54C47.3333 54.2133 47.1733 54.48 47.12 54.8C47.12 55.0667 47.2267 55.3333 47.44 55.6C47.7067 55.8667 47.9733 56 48.24 56C48.56 56 48.8267 55.8933 49.04 55.68C51.76 53.3333 53.8667 50.56 55.36 47.36C56.8533 44.1067 57.6 40.6933 57.6 37.12V36.88ZM30.64 33.84C30.32 34.16 29.8933 34.48 29.36 34.8L28.08 36C27.44 36.5867 26.72 37.28 25.92 38.08C25.76 38.24 25.6 38.5067 25.44 38.88C25.28 39.2 25.2 39.52 25.2 39.84C25.2 40.1067 25.3333 40.3733 25.6 40.64C25.8667 40.8533 26.1867 40.96 26.56 40.96H33.04C33.4667 40.96 33.76 40.88 33.92 40.72C34.1333 40.5067 34.24 40.24 34.24 39.92C34.24 39.6 34.1067 39.36 33.84 39.2C33.6267 38.9867 33.28 38.88 32.8 38.88H28.24C28.3467 38.6667 28.48 38.48 28.64 38.32C28.96 37.8933 29.5733 37.3333 30.48 36.64C31.3867 35.8933 32.0267 35.36 32.4 35.04C32.7733 34.72 33.12 34.2667 33.44 33.68C33.8133 33.04 34 32.3733 34 31.68C34 31.2 33.8933 30.7467 33.68 30.32C33.52 29.8933 33.28 29.52 32.96 29.2C32.6933 28.8267 32.3467 28.56 31.92 28.4C31.3333 28.08 30.56 27.9467 29.6 28C28.9067 28 28.2667 28.1067 27.68 28.32C27.0933 28.48 26.6133 28.7467 26.24 29.12C25.92 29.4933 25.6533 29.92 25.44 30.4C25.28 30.8267 25.2 31.2267 25.2 31.6C25.2 31.9733 25.28 32.2667 25.44 32.48C25.6533 32.64 25.92 32.72 26.24 32.72C26.56 32.72 26.8 32.6133 26.96 32.4C27.1733 32.1333 27.3333 31.8133 27.44 31.44C27.6 31.0667 27.7067 30.8533 27.76 30.8C28.24 30.1067 28.8533 29.76 29.6 29.76C29.92 29.76 30.24 29.84 30.56 30C30.88 30.16 31.12 30.4 31.28 30.72C31.4933 30.9867 31.6 31.3067 31.6 31.68C31.6 32.0533 31.4933 32.4267 31.28 32.8C31.12 33.12 30.9067 33.4667 30.64 33.84ZM42.08 27.84C41.8133 27.84 41.5733 27.9467 41.36 28.16L40.64 29.04L35.92 35.28L35.6 35.76C35.5467 35.8133 35.4667 35.92 35.36 36.08C35.2533 36.1867 35.1733 36.2933 35.12 36.4C35.12 36.5067 35.12 36.64 35.12 36.8C35.12 37.2267 35.2533 37.5733 35.52 37.84C35.84 38.0533 36.2667 38.16 36.8 38.16H41.2V39.84C41.2 40.2667 41.3067 40.6133 41.52 40.88C41.7333 41.0933 42 41.2 42.32 41.2C42.64 41.1467 42.9067 41.04 43.12 40.88C43.3333 40.6667 43.44 40.32 43.44 39.84V38.16H43.92C44.4 38.16 44.7467 38.1067 44.96 38C45.1733 37.84 45.28 37.5733 45.28 37.2C45.28 36.8267 45.1467 36.5867 44.88 36.48C44.6133 36.32 44.24 36.24 43.76 36.24H43.44V29.44C43.44 28.3733 42.9867 27.84 42.08 27.84ZM41.2 36.24H37.44L41.2 31.12V36.24Z" transform="translate(0.5)" fill="#4FD5ED"/>
</svg>
